<?xml version="1.0" standalone="no"?>
<!DOCTYPE svg PUBLIC "-//W3C//DTD SVG 20010904//EN"
 "http://www.w3.org/TR/2001/REC-SVG-20010904/DTD/svg10.dtd">
<svg version="1.0" xmlns="http://www.w3.org/2000/svg"
 width="700.000000pt" height="700.000000pt" viewBox="0 0 700.000000 700.000000"
 preserveAspectRatio="xMidYMid meet">
<metadata>
Created by potrace 1.14, written by Peter Selinger 2001-2017
</metadata>
<g transform="translate(0.000000,700.000000) scale(0.100000,-0.100000)"
fill="#000000" stroke="none">
<path d="M3278 6995 c-2 -1 -42 -5 -89 -9 -47 -4 -95 -8 -106 -10 -11 -3 -44
-7 -74 -11 -241 -30 -632 -136 -834 -225 -485 -214 -798 -423 -1131 -755 -174
-174 -186 -187 -327 -365 -73 -92 -196 -280 -271 -414 -197 -352 -329 -726
-396 -1120 -22 -132 -25 -151 -37 -286 -15 -162 -8 -605 11 -707 2 -10 7 -43
10 -73 7 -62 12 -94 26 -165 6 -27 12 -59 14 -71 60 -317 219 -729 399 -1039
39 -68 184 -288 212 -323 7 -9 44 -56 82 -103 91 -115 179 -213 288 -319 79
-77 115 -109 225 -204 79 -68 418 -306 436 -306 2 0 23 -12 46 -26 60 -38 299
-156 401 -198 175 -72 465 -162 614 -191 304 -58 432 -70 733 -70 113 0 246 4
295 9 847 74 1646 460 2229 1075 76 81 76 80 152 171 315 378 539 800 679
1280 36 127 89 375 100 475 4 33 9 69 11 80 26 128 25 703 -1 830 -2 11 -7 40
-10 65 -3 25 -7 56 -10 70 -3 14 -8 41 -11 60 -8 54 -54 262 -63 290 -5 14
-17 52 -26 85 -116 408 -341 836 -633 1202 -79 99 -323 353 -432 449 -63 56
-240 191 -338 258 -402 273 -935 483 -1397 552 -27 4 -57 9 -65 10 -8 2 -42 6
-76 9 -33 4 -74 9 -90 11 -32 5 -540 14 -546 9z"/>
</g>
</svg>
